<?xml version="1.0" encoding="utf-8"?>
<!-- Generator: Adobe Illustrator 27.0.0, SVG Export Plug-In . SVG Version: 6.00 Build 0)  -->
<svg version="1.1" id="图层_1" xmlns="http://www.w3.org/2000/svg" xmlns:xlink="http://www.w3.org/1999/xlink" x="0px" y="0px"
	 viewBox="0 0 512 512" style="enable-background:new 0 0 512 512;" xml:space="preserve">
<style type="text/css">
	.st0{fill:#00D6B9;}
	.st1{fill:#133C92;}
	.st2{fill:#133C9A;}
	.st3{fill:#3370FF;}
</style>
<g>
	<g>
		<path class="st0" d="M263.9,264l1-1c0.7-0.6,1.3-1.3,2-1.9l1.3-1.3l4.1-4l5.5-5.5l4.8-4.7l4.5-4.4l4.7-4.6l4.3-4.2l6-5.9
			c1.1-1.1,2.3-2.2,3.5-3.3c2.2-2,4.4-3.9,6.7-5.7c2.1-1.7,4.2-3.3,6.4-4.9c3.1-2.2,6.2-4.2,9.5-6.2c3.2-1.9,6.5-3.6,9.8-5.3
			c3.1-1.5,6.4-2.9,9.6-4.2c1.8-0.7,3.7-1.4,5.5-2c0.9-0.3,1.9-0.6,2.8-0.9c-8.3-32.6-23.4-63-44.5-89.2c-2-2.5-4.6-4.5-7.4-5.9
			c-2.9-1.4-6.1-2.1-9.3-2.1l-171.7,0c-0.7,0-1.3,0.2-1.9,0.6c-0.5,0.4-1,1-1.2,1.6s-0.2,1.3,0,2c0.2,0.6,0.6,1.2,1.2,1.6
			c58.6,43,107.2,98.2,142.4,161.8L263.9,264z"/>
		<path class="st1" d="M402,293.9l-0.1,0.2L402,293.9l0.8-1.5C402.5,292.9,402.3,293.4,402,293.9z"/>
		<path class="st1" d="M405.7,287l0.2-0.4l0.1-0.2L405.7,287z"/>
		<path class="st2" d="M456.2,201.6c-29.9-14.7-64.2-17.8-96.3-8.8c-1.3,0.4-2.7,0.8-4,1.2c-0.9,0.3-1.9,0.6-2.8,0.9
			c-1.9,0.6-3.7,1.3-5.5,2c-3.3,1.3-6.5,2.7-9.6,4.2c-3.4,1.6-6.6,3.4-9.8,5.3c-3.3,1.9-6.4,4-9.5,6.2c-2.2,1.6-4.3,3.2-6.4,4.9
			c-2.3,1.8-4.5,3.7-6.7,5.7c-1.2,1.1-2.3,2.2-3.5,3.3l-6,5.9l-4.3,4.2l-4.7,4.6l-4.5,4.4l-4.8,4.7l-5.5,5.5l-4.1,4l-1.3,1.3
			c-0.7,0.7-1.3,1.3-2,1.9l-1,1c-0.5,0.5-1,1-1.5,1.4c-0.6,0.5-1.1,1-1.7,1.6c-14.8,13.6-31.2,25.2-48.9,34.6c1.1,0.5,2.1,1,3.2,1.5
			c0.8,0.4,1.7,0.8,2.5,1.2c0.8,0.4,1.6,0.7,2.4,1.1c0.8,0.4,1.6,0.7,2.4,1.1c0.9,0.4,1.8,0.8,2.6,1.2c1,0.4,2,0.9,3.1,1.3
			c1,0.4,2,0.8,2.9,1.2c1.3,0.5,2.5,1.1,3.8,1.6c1,0.4,2,0.8,3.1,1.3c1.6,0.6,3.2,1.3,4.8,1.9c1.5,0.6,3,1.2,4.5,1.7
			c1.1,0.4,2.3,0.9,3.4,1.3c1.9,0.7,3.9,1.4,5.8,2.1c1,0.4,2,0.7,3,1.1c1.4,0.5,2.8,1,4.2,1.4c1.1,0.4,2.3,0.8,3.4,1.2
			c1.7,0.6,3.3,1.1,5,1.7c1.8,0.6,3.5,1.1,5.3,1.7c2.2,0.7,4.3,1.3,6.5,2c1.5,0.4,2.9,0.9,4.4,1.3c2.9,0.8,5.9,1.7,8.8,2.5
			c1.1,0.3,2.1,0.6,3.2,0.8c2,0.5,4,0.9,6,1.3c2.3,0.4,4.6,0.7,6.9,1c3.1,0.3,6.2,0.5,9.3,0.6c2.8,0,5.6,0,8.4-0.2
			c2.6-0.2,5.2-0.5,7.8-0.9c3.5-0.5,7.1-1.3,10.5-2.3c2.3-0.6,4.6-1.4,6.8-2.2c2.1-0.8,4.1-1.6,6.1-2.5c2.3-1,4.6-2.2,6.8-3.4
			c1.1-0.6,2.2-1.2,3.2-1.9c1-0.6,2-1.3,3-2c1.6-1.1,3.1-2.2,4.6-3.3c1.3-1,2.6-2,3.8-3.1c2.2-1.9,4.4-4,6.5-6.1c1-1.1,2-2.1,3-3.3
			c1.2-1.4,2.4-2.9,3.6-4.4c0.9-1.2,1.8-2.4,2.7-3.7c2.5-3.5,4.7-7.2,6.7-11l2.3-4.6l20.8-41.4l0,0.1
			C435.7,225.9,444.9,212.8,456.2,201.6z"/>
		<path class="st3" d="M195.7,415.2c42.1,0,83.4-11.2,119.6-32.5c36.3-21.3,66.2-52,86.6-88.7c1.4-2.5,2.8-5.1,4.1-7.7
			c-2,3.9-4.3,7.6-6.8,11.1c-0.9,1.2-1.8,2.5-2.7,3.7c-1.2,1.5-2.4,3-3.6,4.4c-1,1.1-2,2.2-3,3.3c-2.1,2.2-4.2,4.2-6.5,6.1
			c-1.2,1.1-2.5,2.1-3.8,3.1c-1.5,1.2-3.1,2.3-4.6,3.3c-1,0.7-2,1.3-3,2c-1.1,0.7-2.1,1.3-3.2,1.9c-2.2,1.2-4.5,2.4-6.8,3.4
			c-2,0.9-4.1,1.7-6.1,2.5c-2.2,0.8-4.5,1.6-6.8,2.2c-3.5,1-7,1.7-10.5,2.3c-2.6,0.4-5.2,0.7-7.8,0.9c-2.8,0.2-5.5,0.3-8.4,0.2
			c-3.1,0-6.2-0.2-9.3-0.6c-2.3-0.2-4.6-0.6-6.9-1c-2-0.4-4-0.8-6-1.3c-1.1-0.3-2.1-0.5-3.2-0.8c-3-0.8-5.9-1.6-8.8-2.5
			c-1.5-0.4-2.9-0.9-4.4-1.3c-2.2-0.6-4.4-1.3-6.5-2c-1.8-0.6-3.5-1.1-5.3-1.7c-1.7-0.5-3.4-1.1-5-1.7c-1.1-0.4-2.3-0.8-3.4-1.2
			c-1.4-0.5-2.8-1-4.2-1.4c-1-0.3-2-0.7-3-1.1c-2-0.7-3.9-1.4-5.8-2.1c-1.1-0.4-2.3-0.8-3.4-1.3c-1.5-0.6-3-1.2-4.5-1.7
			c-1.6-0.6-3.2-1.3-4.8-1.9c-1-0.4-2.1-0.8-3.1-1.3c-1.3-0.5-2.5-1.1-3.8-1.6c-1-0.4-2-0.8-2.9-1.2c-1-0.4-2-0.9-3.1-1.3
			c-0.9-0.4-1.8-0.8-2.6-1.2c-0.8-0.4-1.6-0.7-2.4-1.1c-0.8-0.4-1.6-0.7-2.4-1.1c-0.8-0.4-1.7-0.8-2.5-1.2c-1.1-0.5-2.1-1-3.2-1.5
			c-1.1-0.5-2.2-1-3.3-1.6c-1.2-0.6-2.4-1.1-3.5-1.7c-1-0.5-2-1-3-1.5c-52.7-26.3-100.3-61.8-140.5-104.8c-0.4-0.5-1-0.8-1.6-0.9
			c-0.6-0.1-1.3-0.1-1.9,0.1c-0.6,0.2-1.1,0.6-1.5,1.2c-0.4,0.5-0.6,1.2-0.6,1.8l0.1,151.5v12.3c0,3.5,0.8,7,2.5,10.1
			c1.7,3.1,4,5.8,7,7.7C104,401.6,149.4,415.3,195.7,415.2"/>
	</g>
</g>
</svg>
